# xmcd CD database file
#
# Track frame offsets:
#	150
#	13595
#	25214
#	40443
#	54877
#	68799
#	79106
#	89961
#	102043
#	115799
#	131410
#	146825
#	161237
#	174509
#	194953
#	210450
#	222199
#	239906
#	256577
#	266475
#
# Disc length: 3760 seconds
#
# Revision: 0
# Processed by: cddbd v1.5.1PL2 Copyright (c) Steve Scherf et al.
# Submitted via: CDex 1.40Release
#
DISCID=280eae14
DTITLE=Diversos - Modas de Viola - O Melhor de (vol.2)
DYEAR=1900
DGENRE=Country
TTITLE0=Tião Carreiro and Pardinho - rei do gado
TTITLE1=Tonico and Tinoco - cana verde
TTITLE2=Lourenço and Lourival - rainha do paraná
TTITLE3=Liu and léu - prato do dia
TTITLE4=Rolando Boldrin - minas gerais
TTITLE5=Léo Canhoto and Robertinho - apartamento 37
TTITLE6=Pena Branca and Xavantinho - canção da morena da praia
TTITLE7=Zico and Zeca - priminha linda
TTITLE8=Pedro Bento and Zé da Estrada - preto de alma branca
TTITLE9=Jacó and Jacózinho - nelore valente
TTITLE10=Tião Carreiro and Pardinho - a vaca já foi pro brejo
TTITLE11=Tonico and Tinoco - a mão do tempo
TTITLE12=Lourenço and Lourival - o menino caçador
TTITLE13=Liu and Léu - a volta que o mundo dá
TTITLE14=Rolando Boldrin - piracicaba
TTITLE15=Léo Canhoto and Robertinho - canção do carreteiro
TTITLE16=Pena Branca and Xavantinho - eu a viola e Deus
TTITLE17=Zico and Zeca - mineiro não faz feio
TTITLE18=Pedro Bento and Zé da Estrada - galopeira
TTITLE19=Jacó and Jacózinho - o peão e o ricaço
EXTD=ID3G: 2
EXTT0=
EXTT1=
EXTT2=
EXTT3=
EXTT4=
EXTT5=
EXTT6=
EXTT7=
EXTT8=
EXTT9=
EXTT10=
EXTT11=
EXTT12=
EXTT13=
EXTT14=
EXTT15=
EXTT16=
EXTT17=
EXTT18=
EXTT19=
PLAYORDER=
